<?xml version="1.0" encoding="iso-8859-1"?>
<!-- Generator: Adobe Illustrator 19.0.0, SVG Export Plug-In . SVG Version: 6.00 Build 0)  -->
<svg version="1.1" id="Capa_1" xmlns="http://www.w3.org/2000/svg" xmlns:xlink="http://www.w3.org/1999/xlink" x="0px" y="0px"
	 viewBox="0 0 512 512" style="enable-background:new 0 0 512 512;" xml:space="preserve">
<g>
	<g>
		<path d="M509.059,466.597L405.232,362.768c-0.003-0.003-0.007-0.006-0.01-0.009l-14.14-14.139
			c-5.666-5.666-13.199-8.787-21.212-8.787c-4.818,0-9.459,1.136-13.628,3.267l-22.007-22.008c-3.906-3.903-10.237-3.904-14.141,0
			c-3.905,3.905-3.906,10.237,0,14.142l22.384,22.385c-4.897,11.018-2.842,24.403,6.181,33.425l14.141,14.141
			c0.002,0.002,0.005,0.004,0.007,0.006l0.001,0.001l103.828,103.828c1.952,1.952,4.512,2.929,7.071,2.929s5.119-0.977,7.071-2.929
			l28.283-28.283c1.875-1.876,2.929-4.419,2.929-7.071C511.988,471.016,510.934,468.473,509.059,466.597z M369.87,383.973
			l-7.071-7.071c-1.889-1.889-2.929-4.399-2.929-7.071c-0.001-2.671,1.039-5.182,2.929-7.071c1.889-1.889,4.4-2.93,7.071-2.93
			s5.182,1.041,7.071,2.93l7.071,7.07L369.87,383.973z M473.706,487.807l-89.687-89.685l14.142-14.142l89.686,89.686
			L473.706,487.807z"/>
	</g>
</g>
<g>
	<g>
		<path d="M310.567,297.426c-1.86-1.86-4.44-2.93-7.07-2.93c-2.64,0.001-5.21,1.07-7.07,2.93s-2.93,4.44-2.93,7.07
			s1.07,5.21,2.93,7.069c1.86,1.86,4.44,2.931,7.07,2.931s5.21-1.07,7.07-2.931c1.86-1.859,2.93-4.439,2.93-7.069
			S312.427,299.286,310.567,297.426z"/>
	</g>
</g>
<g>
	<g>
		<path d="M94.867,445.38c-1.86-1.871-4.44-2.93-7.07-2.93c-2.63,0-5.21,1.06-7.07,2.93c-1.86,1.86-2.93,4.43-2.93,7.07
			c0,2.63,1.07,5.21,2.93,7.07c1.86,1.859,4.44,2.93,7.07,2.93c2.63,0,5.21-1.07,7.07-2.93c1.86-1.87,2.93-4.44,2.93-7.07
			S96.727,447.24,94.867,445.38z"/>
	</g>
</g>
<g>
	<g>
		<path d="M483.678,28.331c-21.24-21.24-51.175-31.064-84.286-27.66c-32.341,3.325-63.956,18.958-89.019,44.02
			c-25.062,25.063-40.696,56.677-44.02,89.019c-3.05,29.67,4.527,56.781,21.414,77.38L256,242.858l-31.768-31.768
			c16.887-20.599,24.464-47.711,21.414-77.38c-3.324-32.342-18.957-63.956-44.02-89.019c-25.063-25.062-56.677-40.695-89.019-44.02
			c-33.112-3.401-63.046,6.42-84.287,27.66C7.081,49.573-2.743,79.506,0.661,112.619c3.325,32.342,18.958,63.956,44.02,89.019
			c25.063,25.062,56.677,40.695,89.019,44.02c4.299,0.441,8.544,0.66,12.723,0.66c24.159,0,46.121-7.323,63.564-21.189L241.859,257
			l-86.099,86.099c-4.17-2.131-8.811-3.267-13.628-3.267c-8.014,0-15.546,3.121-21.212,8.787l-14.14,14.139
			c-0.003,0.003-0.007,0.006-0.01,0.009L2.941,466.595c-1.875,1.876-2.929,4.419-2.929,7.071c0,2.652,1.054,5.195,2.929,7.071
			l28.283,28.283c1.953,1.952,4.512,2.929,7.071,2.929c2.559,0,5.119-0.977,7.071-2.929l17.713-17.713
			c3.905-3.905,3.906-10.237,0-14.142c-3.906-3.903-10.237-3.903-14.141,0l-10.643,10.644l-14.14-14.14l89.686-89.686l14.142,14.142
			l-22.255,22.255c-3.905,3.905-3.905,10.237,0,14.142c3.905,3.904,10.237,3.904,14.142,0l29.326-29.326
			c0.001-0.001,0.002-0.003,0.004-0.004c0.001-0.001,0.003-0.002,0.004-0.004l14.142-14.141c9.021-9.024,11.076-22.408,6.18-33.426
			L256,271.142l16.739,16.738c1.953,1.952,4.512,2.929,7.071,2.929s5.119-0.977,7.071-2.929c3.905-3.905,3.905-10.237,0-14.142
			L270.142,257l31.872-31.872c17.442,13.868,39.402,21.189,63.563,21.189c4.178,0,8.427-0.219,12.723-0.66
			c32.341-3.325,63.956-18.958,89.019-44.02c25.062-25.063,40.696-56.677,44.02-89.019
			C514.743,79.506,504.919,49.573,483.678,28.331z M208.659,85.877c5.873,9.789,10.302,19.996,13.256,30.256l-11.39,11.391
			l-21.756-21.756L208.659,85.877z M103.894,118.844L125.65,140.6l-20.767,20.767l-21.756-21.756L103.894,118.844z M68.986,125.471
			l-21.542-21.542l20.768-20.767l21.541,21.541L68.986,125.471z M118.036,104.703l20.692-20.692l21.757,21.757l-20.693,20.691
			L118.036,104.703z M174.628,119.908l21.756,21.756l-20.692,20.692L153.936,140.6L174.628,119.908z M187.483,58.834
			c3.376,3.374,6.533,6.868,9.477,10.457l-22.333,22.333L152.87,69.868l22.135-22.135C179.305,51.131,183.479,54.829,187.483,58.834
			z M158.144,36.31l-19.416,19.416l-35.664-35.664C121.255,20.608,140.335,26.101,158.144,36.31z M103.046,48.328l21.541,21.541
			l-20.692,20.692L82.354,69.02L103.046,48.328z M77.622,22.752c0.276,0.366,0.571,0.722,0.904,1.056l10.379,10.378L68.212,54.878
			L49.567,36.233C57.881,29.829,67.396,25.357,77.622,22.752z M35.54,50.49l18.53,18.53l-34.019,34.019
			C19.476,83.631,24.54,65.242,35.54,50.49z M36.299,158.155c-5.67-9.891-9.881-20.174-12.603-30.479l9.607-9.607l21.541,21.541
			L36.299,158.155z M58.822,187.495c-4.004-4.004-7.703-8.177-11.101-12.478l21.264-21.264l21.756,21.756L69.28,196.971
			C65.691,194.026,62.197,190.869,58.822,187.495z M85.864,208.671l19.019-19.019l28.824,28.824
			c0.001,0.001,0.002,0.003,0.004,0.004c0.002,0.001,0.003,0.002,0.004,0.004l7.716,7.716
			C123,225.315,103.737,219.392,85.864,208.671z M140.781,197.266l-21.756-21.756l20.767-20.767l21.756,21.756L140.781,197.266z
			 M167.408,223.892l-12.484-12.484l20.767-20.767l20.138,20.138C187.383,217.077,177.747,221.43,167.408,223.892z M189.832,176.499
			l36.287-36.287c1.256,20.939-3.965,40.868-16.034,56.54L189.832,176.499z M149.202,376.902l-7.071,7.071l-14.141-14.142
			l7.071-7.07c1.889-1.889,4.399-2.93,7.071-2.93c2.671,0,5.182,1.041,7.071,2.93c1.889,1.889,2.929,4.399,2.929,7.07
			C152.13,372.503,151.09,375.013,149.202,376.902z M433.475,23.808c0.328-0.329,0.618-0.681,0.892-1.041
			c10.227,2.604,19.734,7.081,28.05,13.483l-18.628,18.628l-20.692-20.692L433.475,23.808z M351.514,105.766l21.757-21.757
			l20.692,20.693l-21.757,21.756L351.514,105.766z M358.065,140.6l-21.756,21.756l-20.692-20.692l21.756-21.756L358.065,140.6z
			 M408.106,118.844l20.767,20.767l-21.757,21.756L386.349,140.6L408.106,118.844z M422.248,104.702l21.541-21.541l20.768,20.767
			l-21.542,21.542L422.248,104.702z M429.646,69.02l-21.541,21.541l-20.692-20.692l21.541-21.541L429.646,69.02z M408.939,20.058
			l-35.667,35.668l-19.41-19.41C371.669,26.108,390.748,20.604,408.939,20.058z M324.516,58.834
			c4.004-4.004,8.175-7.707,12.475-11.104l22.139,22.139l-21.757,21.756L315.04,69.292
			C317.985,65.703,321.142,62.209,324.516,58.834z M303.341,85.876l19.89,19.89l-21.756,21.756l-11.391-11.39
			C293.039,105.873,297.468,95.665,303.341,85.876z M301.914,196.752c-12.069-15.672-17.289-35.601-16.034-56.54l36.287,36.287
			L301.914,196.752z M344.593,223.891c-10.34-2.462-19.976-6.816-28.422-13.113l20.138-20.138l20.767,20.768L344.593,223.891z
			 M350.451,176.499l21.756-21.756l20.767,20.767l-21.756,21.756L350.451,176.499z M370.571,226.197l7.715-7.715
			c0.001-0.001,0.003-0.002,0.004-0.004c0.001-0.002,0.002-0.003,0.004-0.004l28.824-28.824l19.019,19.019
			C408.263,219.392,389,225.314,370.571,226.197z M453.177,187.496c-3.374,3.374-6.868,6.531-10.456,9.476l-21.462-21.462
			l21.756-21.756l21.264,21.264C460.88,179.318,457.181,183.492,453.177,187.496z M475.701,158.155l-18.544-18.544l21.541-21.541
			l9.607,9.607C485.581,137.982,481.37,148.265,475.701,158.155z M491.949,103.039L457.929,69.02l18.53-18.53
			C487.459,65.242,492.524,83.631,491.949,103.039z"/>
	</g>
</g>
<g>
	<g>
		<path d="M336.835,456.196l-42.344-68.803v-21.225c0-18.737-15.244-33.98-33.98-33.98h-8.809c-18.737,0-33.981,15.243-33.981,33.98
			v21.232l-42.34,68.794c-8.449,13.727-4.25,31.919,9.362,40.556c4.775,3.029,10.325,4.604,15.912,4.604
			c2.413-0.001,4.833-0.294,7.201-0.891c7.853-1.978,14.63-7.161,18.597-14.22l1.048-1.865
			c0.603,15.326,13.253,27.611,28.725,27.611c15.339,0,27.91-12.073,28.712-27.217l0.827,1.472
			c3.967,7.06,10.744,12.242,18.597,14.22c2.369,0.597,4.788,0.891,7.201,0.891c5.588-0.001,11.138-1.574,15.912-4.604
			C341.084,488.116,345.284,469.924,336.835,456.196z M237.719,366.169c0-7.71,6.273-13.981,13.982-13.981h8.809
			c7.71,0,13.981,6.272,13.981,13.981v14.056h-36.772V366.169z M316.759,479.861c-2.254,1.433-4.923,1.858-7.514,1.208
			c-2.591-0.653-4.738-2.295-6.047-4.624l-18.22-32.43v-13.831c0-5.522-4.477-10-10-10c-5.523,0-10,4.478-10,10v16.576
			c0,0.012,0,0.024,0,0.036v36.436c0,4.827-3.927,8.755-8.755,8.755s-8.755-3.928-8.755-8.755v-53.576c0-5.522-4.477-10-10-10
			c-5.523,0-10,4.478-10,10v13.94l-18.454,32.847c-1.309,2.329-3.457,3.971-6.047,4.624c-2.59,0.65-5.259,0.225-7.514-1.208
			c-4.426-2.808-5.792-8.723-3.044-13.186l40.899-66.452h45.594l40.899,66.452C322.55,471.139,321.184,477.053,316.759,479.861z"/>
	</g>
</g>
<g>
</g>
<g>
</g>
<g>
</g>
<g>
</g>
<g>
</g>
<g>
</g>
<g>
</g>
<g>
</g>
<g>
</g>
<g>
</g>
<g>
</g>
<g>
</g>
<g>
</g>
<g>
</g>
<g>
</g>
</svg>
