<svg height="464pt" viewBox="-60 0 464 464.0002" width="464pt" xmlns="http://www.w3.org/2000/svg"><path d="m132 240h8l108-144h-224zm0 0"/><path d="m288 0c-27.804688.0546875-51.367188 20.484375-55.359375 48h55.359375c3.03125 0 5.800781 1.710938 7.15625 4.421875s1.0625 5.953125-.757812 8.378906l-33.214844 44.28125c20.523437 11.273438 45.894531 8.589844 63.601562-6.730469 17.710938-15.316406 24.019532-40.039062 15.816406-61.96875-8.203124-21.933593-29.1875-36.445312-52.601562-36.382812zm0 0"/><path d="m272 64h-272l12 16h248zm0 0"/><path d="m144 448v-192h-16v192h-48v16h112v-16zm0 0"/></svg>