<?xml version="1.0" encoding="iso-8859-1"?>
<!-- Generator: Adobe Illustrator 19.0.0, SVG Export Plug-In . SVG Version: 6.00 Build 0)  -->
<svg version="1.1" id="Capa_1" xmlns="http://www.w3.org/2000/svg" xmlns:xlink="http://www.w3.org/1999/xlink" x="0px" y="0px"
	 viewBox="0 0 447.997 447.997" style="enable-background:new 0 0 447.997 447.997;" xml:space="preserve">
<g>
	<g>
		<path d="M151.934,163.437c5.088-10.144,8.064-22.32,8.064-35.44c0-18.88-6.24-35.68-16-47.392V47.997h-64v32.608
			c-9.76,11.712-16,28.512-16,47.392c0,13.12,2.976,25.296,8.064,35.44c-23.888,13.824-40.064,39.488-40.064,69.072v199.488
			c0,8.832,7.168,16,16,16h128c8.832,0,16-7.168,16-16V232.509C191.998,202.925,175.822,177.261,151.934,163.437z M111.998,367.997
			h-48v-112h48V367.997z"/>
	</g>
</g>
<g>
	<g>
		<rect x="79.999" width="64" height="32"/>
	</g>
</g>
<g>
	<g>
		<path d="M223.998,255.997v192h192v-192H223.998z M327.998,409.933l-33.936-33.936l33.92-33.936l33.952,33.936L327.998,409.933z
			 M383.998,351.997h-23.424l-21.248-21.248c-3.12-3.12-7.216-4.688-11.312-4.688s-8.192,1.568-11.312,4.688l-21.28,21.248h-39.424
			v-64h128V351.997z"/>
	</g>
</g>
<g>
</g>
<g>
</g>
<g>
</g>
<g>
</g>
<g>
</g>
<g>
</g>
<g>
</g>
<g>
</g>
<g>
</g>
<g>
</g>
<g>
</g>
<g>
</g>
<g>
</g>
<g>
</g>
<g>
</g>
</svg>
